solid EC6F
facet normal 0 0 1
  outer loop
    vertex -2.352546597198663e-13 -1921 2282.429443359375
    vertex -1663.634765625 960.5 2282.429443359375
    vertex -1663.634765625 -960.5 2282.429443359375
  endloop
endfacet
facet normal 0 0 1
  outer loop
    vertex -1663.634765625 960.5 2282.429443359375
    vertex -2.352546597198663e-13 -1921 2282.429443359375
    vertex 0 1921 2282.429443359375
  endloop
endfacet
facet normal 0 0 1
  outer loop
    vertex 0 1921 2282.429443359375
    vertex -2.352546597198663e-13 -1921 2282.429443359375
    vertex 1663.634765625 -960.5 2282.429443359375
  endloop
endfacet
facet normal 0 0 1
  outer loop
    vertex 0 1921 2282.429443359375
    vertex 1663.634765625 -960.5 2282.429443359375
    vertex 1663.634765625 960.5 2282.429443359375
  endloop
endfacet
endsolid EC6F
